<svg width="300" height="300" viewBox="0 0 300 300" fill="none" xmlns="http://www.w3.org/2000/svg">
<path d="M21.4286 42.8574C33.2633 42.8574 42.8573 33.2634 42.8573 21.4287C42.8573 9.59395 33.2633 0 21.4286 0C9.59392 0 0 9.59395 0 21.4287C0 33.2634 9.59392 42.8574 21.4286 42.8574Z" fill="#FC4E04"/>
<path d="M85.7143 40.1813C96.0696 40.1813 104.464 31.7866 104.464 21.4312C104.464 11.0759 96.0696 2.68115 85.7143 2.68115C75.3589 2.68115 66.9642 11.0759 66.9642 21.4312C66.9642 31.7866 75.3589 40.1813 85.7143 40.1813Z" fill="#FC4E04"/>
<path d="M150 37.5004C158.876 37.5004 166.071 30.305 166.071 21.4289C166.071 12.5529 158.876 5.35742 150 5.35742C141.124 5.35742 133.928 12.5529 133.928 21.4289C133.928 30.305 141.124 37.5004 150 37.5004Z" fill="#FC4E04"/>
<path d="M21.4277 104.464C31.783 104.464 40.1777 96.0696 40.1777 85.7142C40.1777 75.3588 31.783 66.9641 21.4277 66.9641C11.0723 66.9641 2.67761 75.3588 2.67761 85.7142C2.67761 96.0696 11.0723 104.464 21.4277 104.464Z" fill="#FC4E04"/>
<path d="M85.7151 107.147C97.5498 107.147 107.144 97.5527 107.144 85.718C107.144 73.8833 97.5498 64.2893 85.7151 64.2893C73.8804 64.2893 64.2865 73.8833 64.2865 85.718C64.2865 97.5527 73.8804 107.147 85.7151 107.147Z" fill="#FC4E04"/>
<path d="M150.001 104.464C160.356 104.464 168.751 96.0696 168.751 85.7142C168.751 75.3588 160.356 66.9641 150.001 66.9641C139.645 66.9641 131.251 75.3588 131.251 85.7142C131.251 96.0696 139.645 104.464 150.001 104.464Z" fill="#FC4E04"/>
<path d="M21.4329 166.071C30.3089 166.071 37.5044 158.875 37.5044 149.999C37.5044 141.123 30.3089 133.928 21.4329 133.928C12.5569 133.928 5.36145 141.123 5.36145 149.999C5.36145 158.875 12.5569 166.071 21.4329 166.071Z" fill="#FC4E04"/>
<path d="M85.7143 168.75C96.0696 168.75 104.464 160.355 104.464 150C104.464 139.645 96.0696 131.25 85.7143 131.25C75.3589 131.25 66.9642 139.645 66.9642 150C66.9642 160.355 75.3589 168.75 85.7143 168.75Z" fill="#FC4E04"/>
<path d="M150.004 171.427C161.839 171.427 171.433 161.833 171.433 149.998C171.433 138.164 161.839 128.57 150.004 128.57C138.17 128.57 128.576 138.164 128.576 149.998C128.576 161.833 138.17 171.427 150.004 171.427Z" fill="#FC4E04"/>
<path d="M214.288 34.821C221.685 34.821 227.681 28.8248 227.681 21.4281C227.681 14.0314 221.685 8.03516 214.288 8.03516C206.892 8.03516 200.896 14.0314 200.896 21.4281C200.896 28.8248 206.892 34.821 214.288 34.821Z" fill="#FC4E04"/>
<path d="M214.283 101.788C223.159 101.788 230.354 94.5921 230.354 85.716C230.354 76.84 223.159 69.6445 214.283 69.6445C205.407 69.6445 198.211 76.84 198.211 85.716C198.211 94.5921 205.407 101.788 214.283 101.788Z" fill="#FC4E04"/>
<path d="M214.287 168.75C224.642 168.75 233.037 160.355 233.037 150C233.037 139.645 224.642 131.25 214.287 131.25C203.931 131.25 195.537 139.645 195.537 150C195.537 160.355 203.931 168.75 214.287 168.75Z" fill="#FC4E04"/>
<path d="M278.57 37.5004C287.446 37.5004 294.641 30.305 294.641 21.4289C294.641 12.5529 287.446 5.35742 278.57 5.35742C269.693 5.35742 262.498 12.5529 262.498 21.4289C262.498 30.305 269.693 37.5004 278.57 37.5004Z" fill="#FC4E04"/>
<path d="M278.575 99.1052C285.971 99.1052 291.968 93.109 291.968 85.7123C291.968 78.3156 285.971 72.3193 278.575 72.3193C271.178 72.3193 265.182 78.3156 265.182 85.7123C265.182 93.109 271.178 99.1052 278.575 99.1052Z" fill="#FC4E04"/>
<path d="M278.57 166.071C287.446 166.071 294.641 158.875 294.641 149.999C294.641 141.123 287.446 133.928 278.57 133.928C269.693 133.928 262.498 141.123 262.498 149.999C262.498 158.875 269.693 166.071 278.57 166.071Z" fill="#FC4E04"/>
<path d="M21.4258 227.68C28.8225 227.68 34.8187 221.684 34.8187 214.287C34.8187 206.891 28.8225 200.895 21.4258 200.895C14.0292 200.895 8.03296 206.891 8.03296 214.287C8.03296 221.684 14.0292 227.68 21.4258 227.68Z" fill="#FC4E04"/>
<path d="M85.7133 230.357C94.5893 230.357 101.785 223.162 101.785 214.286C101.785 205.41 94.5893 198.214 85.7133 198.214C76.8373 198.214 69.6418 205.41 69.6418 214.286C69.6418 223.162 76.8373 230.357 85.7133 230.357Z" fill="#FC4E04"/>
<path d="M150.001 233.036C160.356 233.036 168.751 224.641 168.751 214.286C168.751 203.931 160.356 195.536 150.001 195.536C139.645 195.536 131.251 203.931 131.251 214.286C131.251 224.641 139.645 233.036 150.001 233.036Z" fill="#FC4E04"/>
<path d="M21.4328 294.646C30.3088 294.646 37.5043 287.45 37.5043 278.574C37.5043 269.698 30.3088 262.503 21.4328 262.503C12.5568 262.503 5.36133 269.698 5.36133 278.574C5.36133 287.45 12.5568 294.646 21.4328 294.646Z" fill="#FC4E04"/>
<path d="M85.715 291.966C93.1117 291.966 99.1079 285.97 99.1079 278.573C99.1079 271.177 93.1117 265.18 85.715 265.18C78.3183 265.18 72.3221 271.177 72.3221 278.573C72.3221 285.97 78.3183 291.966 85.715 291.966Z" fill="#FC4E04"/>
<path d="M150 294.646C158.876 294.646 166.071 287.45 166.071 278.574C166.071 269.698 158.876 262.503 150 262.503C141.124 262.503 133.928 269.698 133.928 278.574C133.928 287.45 141.124 294.646 150 294.646Z" fill="#FC4E04"/>
<path d="M214.288 235.716C226.122 235.716 235.716 226.122 235.716 214.287C235.716 202.452 226.122 192.858 214.288 192.858C202.453 192.858 192.859 202.452 192.859 214.287C192.859 226.122 202.453 235.716 214.288 235.716Z" fill="#FC4E04"/>
<path d="M214.287 297.322C224.642 297.322 233.037 288.928 233.037 278.572C233.037 268.217 224.642 259.822 214.287 259.822C203.931 259.822 195.537 268.217 195.537 278.572C195.537 288.928 203.931 297.322 214.287 297.322Z" fill="#FC4E04"/>
<path d="M278.57 233.036C288.926 233.036 297.32 224.641 297.32 214.286C297.32 203.931 288.926 195.536 278.57 195.536C268.215 195.536 259.82 203.931 259.82 214.286C259.82 224.641 268.215 233.036 278.57 233.036Z" fill="#FC4E04"/>
<path d="M278.571 300C290.406 300 300 290.406 300 278.571C300 266.737 290.406 257.143 278.571 257.143C266.737 257.143 257.143 266.737 257.143 278.571C257.143 290.406 266.737 300 278.571 300Z" fill="#FC4E04"/>
</svg>
