<svg width="1135" height="298" viewBox="0 0 1135 298" fill="none" xmlns="http://www.w3.org/2000/svg">
<path d="M368.646 234.538V32.5793H496.738V59.4018H401.829V119.987H480.017V146.53H401.829V234.518H368.646V234.538Z" fill="white"/>
<path d="M559.622 237.994C545.381 237.994 533.18 234.714 522.979 228.194C512.778 221.653 504.897 212.672 499.316 201.211C493.736 189.77 490.956 176.929 490.956 162.687C490.956 148.446 493.736 135.425 499.316 124.184C504.897 112.943 512.818 104.082 523.119 97.6414C533.4 91.2008 545.661 87.9805 559.902 87.9805C571.243 87.9805 581.484 90.9207 590.625 96.7813C599.766 102.642 606.447 110.783 610.667 121.164L606.907 126.924V91.4408H638.93V234.534H606.907V198.191L610.367 205.691C607.667 210.892 603.966 215.992 599.266 220.973C594.546 225.973 588.925 230.054 582.384 233.234C575.844 236.414 568.243 237.994 559.602 237.994H559.622ZM565.983 209.152C573.664 209.152 580.544 207.332 586.605 203.671C592.665 200.011 597.466 194.77 601.026 187.95C604.587 181.129 606.367 172.808 606.367 162.987C606.367 153.167 604.587 144.626 601.026 137.885C597.466 131.164 592.665 125.964 586.605 122.304C580.544 118.643 573.664 116.823 565.983 116.823C554.442 116.823 544.681 120.824 536.7 128.804C528.719 136.785 524.719 148.086 524.719 162.707C524.719 177.329 528.699 188.73 536.7 196.891C544.681 205.071 554.442 209.152 565.983 209.152Z" fill="white"/>
<path d="M743.106 237.992C732.145 237.992 722.484 235.832 714.103 231.492C705.743 227.171 699.062 221.151 694.061 213.47V234.532H660.878V26.8125H694.061V112.78C698.682 106.24 704.982 100.479 712.963 95.4789C720.944 90.4784 731.085 87.9782 743.406 87.9782C757.068 87.9782 769.169 91.2585 779.75 97.7791C790.331 104.32 798.652 113.261 804.712 124.602C810.773 135.943 813.793 148.844 813.793 163.265C813.793 177.687 810.773 190.288 804.712 201.629C798.652 212.97 790.331 221.871 779.75 228.311C769.169 234.752 756.968 237.972 743.106 237.972V237.992ZM736.766 209.149C745.226 209.149 752.727 207.169 759.268 203.229C765.808 199.289 770.909 193.848 774.549 186.927C778.21 180.007 780.03 172.126 780.03 163.265C780.03 154.404 778.21 145.964 774.549 139.023C770.889 132.102 765.788 126.662 759.268 122.721C752.727 118.781 745.226 116.801 736.766 116.801C728.305 116.801 721.084 118.781 714.543 122.721C708.003 126.662 702.902 132.102 699.262 139.023C695.602 145.944 693.781 153.924 693.781 162.965C693.781 172.006 695.602 179.987 699.262 186.907C702.922 193.828 708.003 199.269 714.543 203.209C721.084 207.149 728.485 209.129 736.766 209.129V209.149Z" fill="white"/>
<path d="M829.07 234.539V91.4455H862.254V113.368C865.714 106.247 870.334 100.626 876.095 96.486C881.855 92.3456 888.496 90.2854 895.997 90.2854H915.619V120.008H892.837C886.096 120.008 880.475 121.788 875.955 125.349C871.434 128.909 868.014 134.389 865.714 141.79C863.414 149.191 862.254 158.672 862.254 170.213V234.539H829.07Z" fill="white"/>
<path d="M932.942 66.331V31.7078H967.266V66.331H932.942ZM933.522 234.527V91.4333H966.706V234.527H933.522Z" fill="white"/>
<path d="M1101.7 298V213.172C1097.28 219.512 1091.08 225.253 1083.1 230.333C1075.12 235.434 1064.98 237.974 1052.65 237.974C1038.99 237.974 1026.83 234.694 1016.15 228.173C1005.47 221.633 997.109 212.652 991.048 201.191C984.988 189.75 981.967 176.908 981.967 162.667C981.967 148.426 984.988 135.405 991.048 124.164C997.109 112.923 1005.47 104.062 1016.15 97.6211C1026.83 91.1805 1038.99 87.9602 1052.65 87.9602C1063.82 87.9602 1073.58 90.1204 1081.94 94.4608C1090.3 98.7812 1096.9 104.802 1101.7 112.482V91.4205H1134.88V297.98H1101.7V298ZM1059.01 209.151C1067.48 209.151 1074.94 207.171 1081.38 203.231C1087.82 199.291 1092.86 193.85 1096.52 186.929C1100.18 180.009 1102 172.028 1102 162.987C1102 153.946 1100.16 145.966 1096.52 139.045C1092.86 132.124 1087.82 126.684 1081.38 122.743C1074.94 118.803 1067.48 116.823 1059.01 116.823C1050.55 116.823 1043.33 118.803 1036.79 122.743C1030.25 126.684 1025.11 132.084 1021.35 138.905C1017.59 145.726 1015.73 153.666 1015.73 162.707C1015.73 171.748 1017.61 180.009 1021.35 186.949C1025.09 193.89 1030.25 199.311 1036.79 203.251C1043.33 207.191 1050.73 209.171 1059.01 209.171V209.151Z" fill="white"/>
<path d="M19.2858 38.5716C29.937 38.5716 38.5715 29.9371 38.5715 19.2858C38.5715 8.63455 29.937 0 19.2858 0C8.63453 0 0 8.63455 0 19.2858C0 29.9371 8.63453 38.5716 19.2858 38.5716Z" fill="#FC4E04"/>
<path d="M77.1426 36.1633C86.4624 36.1633 94.0177 28.608 94.0177 19.2882C94.0177 9.96832 86.4624 2.41309 77.1426 2.41309C67.8228 2.41309 60.2676 9.96832 60.2676 19.2882C60.2676 28.608 67.8228 36.1633 77.1426 36.1633Z" fill="#FC4E04"/>
<path d="M135 33.7503C142.988 33.7503 149.464 27.2743 149.464 19.2859C149.464 11.2974 142.988 4.82153 135 4.82153C127.012 4.82153 120.536 11.2974 120.536 19.2859C120.536 27.2743 127.012 33.7503 135 33.7503Z" fill="#FC4E04"/>
<path d="M19.2852 94.0177C28.605 94.0177 36.1602 86.4625 36.1602 77.1427C36.1602 67.8228 28.605 60.2676 19.2852 60.2676C9.96537 60.2676 2.41016 67.8228 2.41016 77.1427C2.41016 86.4625 9.96537 94.0177 19.2852 94.0177Z" fill="#FC4E04"/>
<path d="M77.1437 96.432C87.7949 96.432 96.4294 87.7974 96.4294 77.1462C96.4294 66.4949 87.7949 57.8604 77.1437 57.8604C66.4924 57.8604 57.8579 66.4949 57.8579 77.1462C57.8579 87.7974 66.4924 96.432 77.1437 96.432Z" fill="#FC4E04"/>
<path d="M135.001 94.0177C144.321 94.0177 151.876 86.4625 151.876 77.1427C151.876 67.8228 144.321 60.2676 135.001 60.2676C125.681 60.2676 118.126 67.8228 118.126 77.1427C118.126 86.4625 125.681 94.0177 135.001 94.0177Z" fill="#FC4E04"/>
<path d="M19.2895 149.464C27.2779 149.464 33.7538 142.988 33.7538 135C33.7538 127.011 27.2779 120.535 19.2895 120.535C11.3011 120.535 4.8252 127.011 4.8252 135C4.8252 142.988 11.3011 149.464 19.2895 149.464Z" fill="#FC4E04"/>
<path d="M77.1426 151.875C86.4624 151.875 94.0177 144.32 94.0177 135C94.0177 125.68 86.4624 118.125 77.1426 118.125C67.8228 118.125 60.2676 125.68 60.2676 135C60.2676 144.32 67.8228 151.875 77.1426 151.875Z" fill="#FC4E04"/>
<path d="M135.004 154.284C145.655 154.284 154.29 145.65 154.29 134.998C154.29 124.347 145.655 115.713 135.004 115.713C124.353 115.713 115.718 124.347 115.718 134.998C115.718 145.65 124.353 154.284 135.004 154.284Z" fill="#FC4E04"/>
<path d="M192.86 31.339C199.517 31.339 204.913 25.9424 204.913 19.2853C204.913 12.6283 199.517 7.23169 192.86 7.23169C186.202 7.23169 180.806 12.6283 180.806 19.2853C180.806 25.9424 186.202 31.339 192.86 31.339Z" fill="#FC4E04"/>
<path d="M192.854 91.6089C200.843 91.6089 207.319 85.133 207.319 77.1445C207.319 69.1561 200.843 62.6802 192.854 62.6802C184.866 62.6802 178.39 69.1561 178.39 77.1445C178.39 85.133 184.866 91.6089 192.854 91.6089Z" fill="#FC4E04"/>
<path d="M192.858 151.875C202.178 151.875 209.733 144.32 209.733 135C209.733 125.68 202.178 118.125 192.858 118.125C183.538 118.125 175.983 125.68 175.983 135C175.983 144.32 183.538 151.875 192.858 151.875Z" fill="#FC4E04"/>
<path d="M250.713 33.7503C258.701 33.7503 265.177 27.2743 265.177 19.2859C265.177 11.2974 258.701 4.82153 250.713 4.82153C242.724 4.82153 236.248 11.2974 236.248 19.2859C236.248 27.2743 242.724 33.7503 250.713 33.7503Z" fill="#FC4E04"/>
<path d="M250.717 89.1947C257.374 89.1947 262.771 83.7981 262.771 77.141C262.771 70.484 257.374 65.0874 250.717 65.0874C244.06 65.0874 238.664 70.484 238.664 77.141C238.664 83.7981 244.06 89.1947 250.717 89.1947Z" fill="#FC4E04"/>
<path d="M250.713 149.464C258.701 149.464 265.177 142.988 265.177 135C265.177 127.011 258.701 120.535 250.713 120.535C242.724 120.535 236.248 127.011 236.248 135C236.248 142.988 242.724 149.464 250.713 149.464Z" fill="#FC4E04"/>
<path d="M19.2833 204.912C25.9404 204.912 31.3369 199.516 31.3369 192.859C31.3369 186.202 25.9404 180.805 19.2833 180.805C12.6263 180.805 7.22974 186.202 7.22974 192.859C7.22974 199.516 12.6263 204.912 19.2833 204.912Z" fill="#FC4E04"/>
<path d="M77.1421 207.321C85.1305 207.321 91.6064 200.845 91.6064 192.857C91.6064 184.868 85.1305 178.393 77.1421 178.393C69.1536 178.393 62.6777 184.868 62.6777 192.857C62.6777 200.845 69.1536 207.321 77.1421 207.321Z" fill="#FC4E04"/>
<path d="M135.001 209.733C144.321 209.733 151.876 202.177 151.876 192.858C151.876 183.538 144.321 175.982 135.001 175.982C125.681 175.982 118.126 183.538 118.126 192.858C118.126 202.177 125.681 209.733 135.001 209.733Z" fill="#FC4E04"/>
<path d="M19.2895 265.181C27.2779 265.181 33.7538 258.705 33.7538 250.717C33.7538 242.729 27.2779 236.253 19.2895 236.253C11.3011 236.253 4.8252 242.729 4.8252 250.717C4.8252 258.705 11.3011 265.181 19.2895 265.181Z" fill="#FC4E04"/>
<path d="M77.1434 262.77C83.8005 262.77 89.197 257.373 89.197 250.716C89.197 244.059 83.8005 238.662 77.1434 238.662C70.4864 238.662 65.0898 244.059 65.0898 250.716C65.0898 257.373 70.4864 262.77 77.1434 262.77Z" fill="#FC4E04"/>
<path d="M135 265.181C142.988 265.181 149.464 258.705 149.464 250.717C149.464 242.729 142.988 236.253 135 236.253C127.011 236.253 120.535 242.729 120.535 250.717C120.535 258.705 127.011 265.181 135 265.181Z" fill="#FC4E04"/>
<path d="M192.859 212.144C203.51 212.144 212.145 203.509 212.145 192.858C212.145 182.207 203.51 173.572 192.859 173.572C182.208 173.572 173.573 182.207 173.573 192.858C173.573 203.509 182.208 212.144 192.859 212.144Z" fill="#FC4E04"/>
<path d="M192.858 267.59C202.178 267.59 209.733 260.035 209.733 250.715C209.733 241.395 202.178 233.84 192.858 233.84C183.538 233.84 175.983 241.395 175.983 250.715C175.983 260.035 183.538 267.59 192.858 267.59Z" fill="#FC4E04"/>
<path d="M250.713 209.733C260.033 209.733 267.588 202.177 267.588 192.858C267.588 183.538 260.033 175.982 250.713 175.982C241.393 175.982 233.838 183.538 233.838 192.858C233.838 202.177 241.393 209.733 250.713 209.733Z" fill="#FC4E04"/>
<path d="M250.714 270C261.365 270 270 261.366 270 250.714C270 240.063 261.365 231.428 250.714 231.428C240.063 231.428 231.428 240.063 231.428 250.714C231.428 261.366 240.063 270 250.714 270Z" fill="#FC4E04"/>
</svg>
