<svg width="1125" height="500" viewBox="0 0 1125 500" fill="none" xmlns="http://www.w3.org/2000/svg">
<rect width="1125" height="500" fill="white"/>
<path d="M265.492 188.485C271.287 188.485 275.985 183.787 275.985 177.992C275.985 172.198 271.287 167.5 265.492 167.5C259.698 167.5 255 172.198 255 177.992C255 183.787 259.698 188.485 265.492 188.485Z" fill="#FC4E04"/>
<path d="M296.969 187.173C302.039 187.173 306.15 183.063 306.15 177.993C306.15 172.922 302.039 168.812 296.969 168.812C291.899 168.812 287.788 172.922 287.788 177.993C287.788 183.063 291.899 187.173 296.969 187.173Z" fill="#FC4E04"/>
<path d="M328.446 185.862C332.792 185.862 336.315 182.339 336.315 177.993C336.315 173.647 332.792 170.124 328.446 170.124C324.1 170.124 320.576 173.647 320.576 177.993C320.576 182.339 324.1 185.862 328.446 185.862Z" fill="#FC4E04"/>
<path d="M265.493 218.65C270.563 218.65 274.673 214.54 274.673 209.469C274.673 204.399 270.563 200.288 265.493 200.288C260.422 200.288 256.312 204.399 256.312 209.469C256.312 214.54 260.422 218.65 265.493 218.65Z" fill="#FC4E04"/>
<path d="M296.969 219.963C302.764 219.963 307.461 215.265 307.461 209.47C307.461 203.675 302.764 198.978 296.969 198.978C291.174 198.978 286.476 203.675 286.476 209.47C286.476 215.265 291.174 219.963 296.969 219.963Z" fill="#FC4E04"/>
<path d="M328.445 218.65C333.516 218.65 337.626 214.54 337.626 209.469C337.626 204.399 333.516 200.288 328.445 200.288C323.375 200.288 319.265 204.399 319.265 209.469C319.265 214.54 323.375 218.65 328.445 218.65Z" fill="#FC4E04"/>
<path d="M265.493 248.815C269.839 248.815 273.362 245.292 273.362 240.946C273.362 236.6 269.839 233.077 265.493 233.077C261.147 233.077 257.624 236.6 257.624 240.946C257.624 245.292 261.147 248.815 265.493 248.815Z" fill="#FC4E04"/>
<path d="M296.969 250.126C302.039 250.126 306.15 246.016 306.15 240.946C306.15 235.875 302.039 231.765 296.969 231.765C291.899 231.765 287.788 235.875 287.788 240.946C287.788 246.016 291.899 250.126 296.969 250.126Z" fill="#FC4E04"/>
<path d="M328.448 251.438C334.243 251.438 338.94 246.74 338.94 240.945C338.94 235.151 334.243 230.453 328.448 230.453C322.653 230.453 317.955 235.151 317.955 240.945C317.955 246.74 322.653 251.438 328.448 251.438Z" fill="#FC4E04"/>
<path d="M359.925 184.55C363.547 184.55 366.483 181.614 366.483 177.992C366.483 174.37 363.547 171.434 359.925 171.434C356.303 171.434 353.367 174.37 353.367 177.992C353.367 181.614 356.303 184.55 359.925 184.55Z" fill="#FC4E04"/>
<path d="M359.922 217.339C364.268 217.339 367.791 213.816 367.791 209.469C367.791 205.123 364.268 201.6 359.922 201.6C355.576 201.6 352.053 205.123 352.053 209.469C352.053 213.816 355.576 217.339 359.922 217.339Z" fill="#FC4E04"/>
<path d="M359.922 250.126C364.992 250.126 369.103 246.016 369.103 240.946C369.103 235.875 364.992 231.765 359.922 231.765C354.851 231.765 350.741 235.875 350.741 240.946C350.741 246.016 354.851 250.126 359.922 250.126Z" fill="#FC4E04"/>
<path d="M391.399 185.862C395.745 185.862 399.268 182.339 399.268 177.993C399.268 173.647 395.745 170.124 391.399 170.124C387.052 170.124 383.529 173.647 383.529 177.993C383.529 182.339 387.052 185.862 391.399 185.862Z" fill="#FC4E04"/>
<path d="M391.401 216.026C395.023 216.026 397.959 213.09 397.959 209.468C397.959 205.847 395.023 202.911 391.401 202.911C387.78 202.911 384.844 205.847 384.844 209.468C384.844 213.09 387.78 216.026 391.401 216.026Z" fill="#FC4E04"/>
<path d="M391.399 248.815C395.745 248.815 399.268 245.292 399.268 240.946C399.268 236.6 395.745 233.077 391.399 233.077C387.052 233.077 383.529 236.6 383.529 240.946C383.529 245.292 387.052 248.815 391.399 248.815Z" fill="#FC4E04"/>
<path d="M265.491 278.981C269.112 278.981 272.048 276.045 272.048 272.423C272.048 268.801 269.112 265.865 265.491 265.865C261.869 265.865 258.933 268.801 258.933 272.423C258.933 276.045 261.869 278.981 265.491 278.981Z" fill="#FC4E04"/>
<path d="M296.969 280.292C301.315 280.292 304.839 276.769 304.839 272.423C304.839 268.076 301.315 264.553 296.969 264.553C292.623 264.553 289.1 268.076 289.1 272.423C289.1 276.769 292.623 280.292 296.969 280.292Z" fill="#FC4E04"/>
<path d="M328.445 281.604C333.516 281.604 337.626 277.494 337.626 272.424C337.626 267.353 333.516 263.243 328.445 263.243C323.375 263.243 319.265 267.353 319.265 272.424C319.265 277.494 323.375 281.604 328.445 281.604Z" fill="#FC4E04"/>
<path d="M265.493 311.77C269.839 311.77 273.362 308.246 273.362 303.9C273.362 299.554 269.839 296.031 265.493 296.031C261.147 296.031 257.624 299.554 257.624 303.9C257.624 308.246 261.147 311.77 265.493 311.77Z" fill="#FC4E04"/>
<path d="M296.97 310.458C300.591 310.458 303.527 307.522 303.527 303.901C303.527 300.279 300.591 297.343 296.97 297.343C293.348 297.343 290.412 300.279 290.412 303.901C290.412 307.522 293.348 310.458 296.97 310.458Z" fill="#FC4E04"/>
<path d="M328.446 311.77C332.792 311.77 336.315 308.246 336.315 303.9C336.315 299.554 332.792 296.031 328.446 296.031C324.1 296.031 320.576 299.554 320.576 303.9C320.576 308.246 324.1 311.77 328.446 311.77Z" fill="#FC4E04"/>
<path d="M359.924 282.916C365.719 282.916 370.416 278.218 370.416 272.423C370.416 266.628 365.719 261.931 359.924 261.931C354.129 261.931 349.432 266.628 349.432 272.423C349.432 278.218 354.129 282.916 359.924 282.916Z" fill="#FC4E04"/>
<path d="M359.922 313.081C364.992 313.081 369.103 308.97 369.103 303.9C369.103 298.83 364.992 294.719 359.922 294.719C354.851 294.719 350.741 298.83 350.741 303.9C350.741 308.97 354.851 313.081 359.922 313.081Z" fill="#FC4E04"/>
<path d="M391.401 281.604C396.471 281.604 400.582 277.494 400.582 272.424C400.582 267.353 396.471 263.243 391.401 263.243C386.33 263.243 382.22 267.353 382.22 272.424C382.22 277.494 386.33 281.604 391.401 281.604Z" fill="#FC4E04"/>
<path d="M391.401 314.392C397.195 314.392 401.893 309.694 401.893 303.9C401.893 298.105 397.195 293.407 391.401 293.407C385.606 293.407 380.908 298.105 380.908 303.9C380.908 309.694 385.606 314.392 391.401 314.392Z" fill="#FC4E04"/>
<path d="M454.682 295.624V186.23H524.066V200.759H472.657V233.576H515.008V247.953H472.657V295.613H454.682V295.624Z" fill="#141414"/>
<path d="M558.128 297.496C550.414 297.496 543.805 295.719 538.279 292.187C532.754 288.645 528.485 283.78 525.462 277.572C522.439 271.375 520.933 264.419 520.933 256.705C520.933 248.991 522.439 241.938 525.462 235.849C528.485 229.76 532.775 224.961 538.355 221.472C543.924 217.983 550.565 216.239 558.279 216.239C564.422 216.239 569.97 217.832 574.921 221.006C579.872 224.18 583.491 228.59 585.777 234.213L583.74 237.333V218.113H601.086V295.622H583.74V275.936L585.614 279.999C584.152 282.816 582.147 285.579 579.601 288.276C577.044 290.985 574 293.195 570.457 294.918C566.914 296.64 562.797 297.496 558.117 297.496H558.128ZM561.573 281.873C565.733 281.873 569.46 280.887 572.743 278.905C576.026 276.922 578.626 274.083 580.555 270.389C582.483 266.694 583.447 262.187 583.447 256.868C583.447 251.548 582.483 246.922 580.555 243.271C578.626 239.63 576.026 236.813 572.743 234.831C569.46 232.848 565.733 231.862 561.573 231.862C555.322 231.862 550.034 234.029 545.711 238.352C541.389 242.675 539.222 248.796 539.222 256.716C539.222 264.636 541.378 270.811 545.711 275.232C550.034 279.663 555.322 281.873 561.573 281.873Z" fill="#141414"/>
<path d="M657.514 297.495C651.577 297.495 646.344 296.325 641.804 293.974C637.276 291.634 633.657 288.373 630.948 284.212V295.621H612.974V183.107H630.948V229.673C633.451 226.13 636.864 223.009 641.187 220.301C645.51 217.592 651.003 216.238 657.677 216.238C665.077 216.238 671.631 218.015 677.363 221.547C683.094 225.09 687.601 229.933 690.884 236.076C694.167 242.219 695.803 249.207 695.803 257.018C695.803 264.83 694.167 271.656 690.884 277.799C687.601 283.942 683.094 288.763 677.363 292.252C671.631 295.74 665.022 297.484 657.514 297.484V297.495ZM654.08 281.872C658.663 281.872 662.725 280.8 666.268 278.665C669.811 276.531 672.574 273.584 674.546 269.835C676.528 266.087 677.514 261.818 677.514 257.018C677.514 252.219 676.528 247.647 674.546 243.887C672.563 240.139 669.8 237.192 666.268 235.057C662.725 232.923 658.663 231.85 654.08 231.85C649.497 231.85 645.586 232.923 642.043 235.057C638.5 237.192 635.737 240.139 633.765 243.887C631.783 247.636 630.797 251.959 630.797 256.856C630.797 261.753 631.783 266.076 633.765 269.825C635.748 273.573 638.5 276.52 642.043 278.654C645.586 280.789 649.594 281.861 654.08 281.861V281.872Z" fill="#141414"/>
<path d="M704.079 295.624V218.116H722.053V229.99C723.927 226.133 726.43 223.089 729.55 220.846C732.671 218.603 736.268 217.487 740.331 217.487H750.959V233.587H738.619C734.968 233.587 731.923 234.551 729.475 236.48C727.026 238.408 725.173 241.377 723.927 245.386C722.681 249.394 722.053 254.53 722.053 260.781V295.624H704.079Z" fill="#141414"/>
<path d="M760.343 204.512V185.758H778.935V204.512H760.343ZM760.657 295.618V218.109H778.631V295.618H760.657Z" fill="#141414"/>
<path d="M851.752 329.999V284.051C849.357 287.486 845.998 290.595 841.676 293.347C837.353 296.11 831.86 297.486 825.186 297.486C817.786 297.486 811.199 295.709 805.413 292.177C799.627 288.634 795.099 283.769 791.816 277.561C788.533 271.364 786.897 264.408 786.897 256.694C786.897 248.98 788.533 241.927 791.816 235.838C795.099 229.75 799.627 224.95 805.413 221.461C811.199 217.973 817.786 216.228 825.186 216.228C831.231 216.228 836.518 217.398 841.047 219.749C845.576 222.09 849.151 225.351 851.752 229.511V218.103H869.726V329.989H851.752V329.999ZM828.631 281.873C833.214 281.873 837.255 280.801 840.744 278.666C844.232 276.532 846.963 273.585 848.945 269.836C850.928 266.088 851.914 261.765 851.914 256.868C851.914 251.971 850.917 247.648 848.945 243.899C846.963 240.15 844.232 237.204 840.744 235.069C837.255 232.935 833.214 231.862 828.631 231.862C824.048 231.862 820.137 232.935 816.594 235.069C813.051 237.204 810.267 240.129 808.23 243.823C806.193 247.518 805.185 251.819 805.185 256.716C805.185 261.613 806.204 266.088 808.23 269.847C810.256 273.607 813.051 276.543 816.594 278.677C820.137 280.812 824.146 281.884 828.631 281.884V281.873Z" fill="#141414"/>
</svg>
