<svg width="1135" height="300" viewBox="0 0 1135 300" fill="none" xmlns="http://www.w3.org/2000/svg">
<path d="M19.3705 38.7411C30.0685 38.7411 38.741 30.0686 38.741 19.3705C38.741 8.67248 30.0685 0 19.3705 0C8.67247 0 0 8.67248 0 19.3705C0 30.0686 8.67247 38.7411 19.3705 38.7411Z" fill="#141414"/>
<path d="M77.4814 36.3205C86.8422 36.3205 94.4306 28.7321 94.4306 19.3713C94.4306 10.0105 86.8422 2.42212 77.4814 2.42212C68.1206 2.42212 60.5322 10.0105 60.5322 19.3713C60.5322 28.7321 68.1206 36.3205 77.4814 36.3205Z" fill="#141414"/>
<path d="M135.593 33.8993C143.616 33.8993 150.121 27.3949 150.121 19.3714C150.121 11.3479 143.616 4.84351 135.593 4.84351C127.569 4.84351 121.065 11.3479 121.065 19.3714C121.065 27.3949 127.569 33.8993 135.593 33.8993Z" fill="#141414"/>
<path d="M19.3713 94.4313C28.7321 94.4313 36.3205 86.8428 36.3205 77.482C36.3205 68.1213 28.7321 60.5328 19.3713 60.5328C10.0105 60.5328 2.42212 68.1213 2.42212 77.482C2.42212 86.8428 10.0105 94.4313 19.3713 94.4313Z" fill="#141414"/>
<path d="M77.4813 96.8543C88.1794 96.8543 96.8518 88.1819 96.8518 77.4838C96.8518 66.7858 88.1794 58.1133 77.4813 58.1133C66.7833 58.1133 58.1108 66.7858 58.1108 77.4838C58.1108 88.1819 66.7833 96.8543 77.4813 96.8543Z" fill="#141414"/>
<path d="M135.592 94.4313C144.953 94.4313 152.541 86.8428 152.541 77.482C152.541 68.1213 144.953 60.5328 135.592 60.5328C126.231 60.5328 118.643 68.1213 118.643 77.482C118.643 86.8428 126.231 94.4313 135.592 94.4313Z" fill="#141414"/>
<path d="M19.3714 150.121C27.3949 150.121 33.8993 143.616 33.8993 135.593C33.8993 127.569 27.3949 121.065 19.3714 121.065C11.3479 121.065 4.84351 127.569 4.84351 135.593C4.84351 143.616 11.3479 150.121 19.3714 150.121Z" fill="#141414"/>
<path d="M77.4814 152.541C86.8422 152.541 94.4306 144.953 94.4306 135.592C94.4306 126.231 86.8422 118.643 77.4814 118.643C68.1206 118.643 60.5322 126.231 60.5322 135.592C60.5322 144.953 68.1206 152.541 77.4814 152.541Z" fill="#141414"/>
<path d="M135.596 154.962C146.294 154.962 154.967 146.29 154.967 135.592C154.967 124.894 146.294 116.221 135.596 116.221C124.898 116.221 116.226 124.894 116.226 135.592C116.226 146.29 124.898 154.962 135.596 154.962Z" fill="#141414"/>
<path d="M193.707 31.4762C200.394 31.4762 205.814 26.0559 205.814 19.3696C205.814 12.6834 200.394 7.26306 193.707 7.26306C187.021 7.26306 181.601 12.6834 181.601 19.3696C181.601 26.0559 187.021 31.4762 193.707 31.4762Z" fill="#141414"/>
<path d="M193.702 92.01C201.725 92.01 208.23 85.5057 208.23 77.4821C208.23 69.4586 201.725 62.9542 193.702 62.9542C185.678 62.9542 179.174 69.4586 179.174 77.4821C179.174 85.5057 185.678 92.01 193.702 92.01Z" fill="#141414"/>
<path d="M193.703 152.541C203.064 152.541 210.652 144.953 210.652 135.592C210.652 126.231 203.064 118.643 193.703 118.643C184.342 118.643 176.754 126.231 176.754 135.592C176.754 144.953 184.342 152.541 193.703 152.541Z" fill="#141414"/>
<path d="M251.813 33.8993C259.836 33.8993 266.34 27.3949 266.34 19.3714C266.34 11.3479 259.836 4.84351 251.813 4.84351C243.789 4.84351 237.285 11.3479 237.285 19.3714C237.285 27.3949 243.789 33.8993 251.813 33.8993Z" fill="#141414"/>
<path d="M251.818 89.5869C258.504 89.5869 263.925 84.1666 263.925 77.4804C263.925 70.7941 258.504 65.3738 251.818 65.3738C245.132 65.3738 239.711 70.7941 239.711 77.4804C239.711 84.1666 245.132 89.5869 251.818 89.5869Z" fill="#141414"/>
<path d="M251.813 150.121C259.836 150.121 266.34 143.616 266.34 135.593C266.34 127.569 259.836 121.065 251.813 121.065C243.789 121.065 237.285 127.569 237.285 135.593C237.285 143.616 243.789 150.121 251.813 150.121Z" fill="#141414"/>
<path d="M19.3678 205.812C26.0541 205.812 31.4744 200.392 31.4744 193.706C31.4744 187.019 26.0541 181.599 19.3678 181.599C12.6815 181.599 7.26123 187.019 7.26123 193.706C7.26123 200.392 12.6815 205.812 19.3678 205.812Z" fill="#141414"/>
<path d="M77.4822 208.233C85.5057 208.233 92.0101 201.728 92.0101 193.705C92.0101 185.681 85.5057 179.177 77.4822 179.177C69.4587 179.177 62.9543 185.681 62.9543 193.705C62.9543 201.728 69.4587 208.233 77.4822 208.233Z" fill="#141414"/>
<path d="M135.592 210.656C144.953 210.656 152.541 203.067 152.541 193.707C152.541 184.346 144.953 176.757 135.592 176.757C126.231 176.757 118.643 184.346 118.643 193.707C118.643 203.067 126.231 210.656 135.592 210.656Z" fill="#141414"/>
<path d="M19.3714 266.346C27.3949 266.346 33.8993 259.842 33.8993 251.818C33.8993 243.795 27.3949 237.29 19.3714 237.29C11.3479 237.29 4.84351 243.795 4.84351 251.818C4.84351 259.842 11.3479 266.346 19.3714 266.346Z" fill="#141414"/>
<path d="M77.483 263.924C84.1693 263.924 89.5896 258.503 89.5896 251.817C89.5896 245.131 84.1693 239.71 77.483 239.71C70.7968 239.71 65.3765 245.131 65.3765 251.817C65.3765 258.503 70.7968 263.924 77.483 263.924Z" fill="#141414"/>
<path d="M135.593 266.346C143.616 266.346 150.121 259.842 150.121 251.818C150.121 243.795 143.616 237.29 135.593 237.29C127.569 237.29 121.065 243.795 121.065 251.818C121.065 259.842 127.569 266.346 135.593 266.346Z" fill="#141414"/>
<path d="M193.706 213.076C204.404 213.076 213.076 204.404 213.076 193.706C213.076 183.008 204.404 174.335 193.706 174.335C183.008 174.335 174.335 183.008 174.335 193.706C174.335 204.404 183.008 213.076 193.706 213.076Z" fill="#141414"/>
<path d="M193.702 268.766C203.062 268.766 210.651 261.178 210.651 251.817C210.651 242.456 203.062 234.868 193.702 234.868C184.341 234.868 176.752 242.456 176.752 251.817C176.752 261.178 184.341 268.766 193.702 268.766Z" fill="#141414"/>
<path d="M251.817 210.656C261.178 210.656 268.766 203.067 268.766 193.707C268.766 184.346 261.178 176.757 251.817 176.757C242.456 176.757 234.868 184.346 234.868 193.707C234.868 203.067 242.456 210.656 251.817 210.656Z" fill="#141414"/>
<path d="M251.816 271.187C262.514 271.187 271.187 262.515 271.187 251.816C271.187 241.118 262.514 232.446 251.816 232.446C241.118 232.446 232.446 241.118 232.446 251.816C232.446 262.515 241.118 271.187 251.816 271.187Z" fill="#141414"/>
<path d="M368.646 236.538V34.5792H496.738V61.4017H401.829V121.987H480.017V148.53H401.829V236.518H368.646V236.538Z" fill="#141414"/>
<path d="M559.622 239.994C545.381 239.994 533.18 236.714 522.979 230.193C512.778 223.653 504.897 214.672 499.316 203.211C493.736 191.77 490.956 178.929 490.956 164.687C490.956 150.446 493.736 137.425 499.316 126.184C504.897 114.943 512.818 106.082 523.119 99.6412C533.4 93.2006 545.661 89.9803 559.902 89.9803C571.243 89.9803 581.484 92.9206 590.625 98.7812C599.766 104.642 606.447 112.782 610.667 123.163L606.907 128.924V93.4407H638.93V236.534H606.907V200.191L610.367 207.691C607.667 212.892 603.966 217.992 599.266 222.973C594.546 227.973 588.925 232.054 582.384 235.234C575.844 238.414 568.243 239.994 559.602 239.994H559.622ZM565.983 211.152C573.664 211.152 580.544 209.331 586.605 205.671C592.665 202.011 597.466 196.77 601.026 189.95C604.587 183.129 606.367 174.808 606.367 164.987C606.367 155.166 604.587 146.626 601.026 139.885C597.466 133.164 592.665 127.964 586.605 124.304C580.544 120.643 573.664 118.823 565.983 118.823C554.442 118.823 544.681 122.823 536.7 130.804C528.719 138.785 524.719 150.086 524.719 164.707C524.719 179.329 528.699 190.73 536.7 198.89C544.681 207.071 554.442 211.152 565.983 211.152Z" fill="#141414"/>
<path d="M743.106 239.992C732.145 239.992 722.484 237.832 714.103 233.492C705.743 229.171 699.062 223.151 694.061 215.47V236.532H660.878V28.8125H694.061V114.78C698.682 108.24 704.982 102.479 712.963 97.4789C720.944 92.4784 731.085 89.9782 743.406 89.9782C757.068 89.9782 769.169 93.2585 779.75 99.7791C790.331 106.32 798.652 115.261 804.712 126.602C810.773 137.943 813.793 150.844 813.793 165.265C813.793 179.687 810.773 192.288 804.712 203.629C798.652 214.97 790.331 223.871 779.75 230.311C769.169 236.752 756.968 239.972 743.106 239.972V239.992ZM736.766 211.149C745.226 211.149 752.727 209.169 759.268 205.229C765.808 201.289 770.909 195.848 774.549 188.927C778.21 182.007 780.03 174.126 780.03 165.265C780.03 156.404 778.21 147.964 774.549 141.023C770.889 134.102 765.788 128.662 759.268 124.721C752.727 120.781 745.226 118.801 736.766 118.801C728.305 118.801 721.084 120.781 714.543 124.721C708.003 128.662 702.902 134.102 699.262 141.023C695.602 147.944 693.781 155.924 693.781 164.965C693.781 174.006 695.602 181.987 699.262 188.907C702.922 195.828 708.003 201.269 714.543 205.209C721.084 209.149 728.485 211.129 736.766 211.129V211.149Z" fill="#141414"/>
<path d="M829.07 236.539V93.4455H862.254V115.368C865.714 108.247 870.334 102.626 876.095 98.486C881.855 94.3456 888.496 92.2854 895.997 92.2854H915.619V122.008H892.837C886.096 122.008 880.475 123.788 875.955 127.349C871.434 130.909 868.014 136.389 865.714 143.79C863.414 151.191 862.254 160.672 862.254 172.213V236.539H829.07Z" fill="#141414"/>
<path d="M932.942 68.3309V33.7076H967.266V68.3309H932.942ZM933.522 236.526V93.4332H966.706V236.526H933.522Z" fill="#141414"/>
<path d="M1101.7 300V215.172C1097.28 221.512 1091.08 227.253 1083.1 232.333C1075.12 237.434 1064.98 239.974 1052.65 239.974C1038.99 239.974 1026.83 236.694 1016.15 230.173C1005.47 223.633 997.109 214.652 991.048 203.191C984.988 191.75 981.967 178.908 981.967 164.667C981.967 150.426 984.988 137.405 991.048 126.164C997.109 114.923 1005.47 106.062 1016.15 99.6211C1026.83 93.1805 1038.99 89.9602 1052.65 89.9602C1063.82 89.9602 1073.58 92.1204 1081.94 96.4608C1090.3 100.781 1096.9 106.802 1101.7 114.482V93.4205H1134.88V299.98H1101.7V300ZM1059.01 211.151C1067.48 211.151 1074.94 209.171 1081.38 205.231C1087.82 201.291 1092.86 195.85 1096.52 188.929C1100.18 182.009 1102 174.028 1102 164.987C1102 155.946 1100.16 147.966 1096.52 141.045C1092.86 134.124 1087.82 128.684 1081.38 124.743C1074.94 120.803 1067.48 118.823 1059.01 118.823C1050.55 118.823 1043.33 120.803 1036.79 124.743C1030.25 128.684 1025.11 134.084 1021.35 140.905C1017.59 147.726 1015.73 155.666 1015.73 164.707C1015.73 173.748 1017.61 182.009 1021.35 188.949C1025.09 195.89 1030.25 201.311 1036.79 205.251C1043.33 209.191 1050.73 211.171 1059.01 211.171V211.151Z" fill="#141414"/>
</svg>
