<svg width="1135" height="300" viewBox="0 0 1135 300" fill="none" xmlns="http://www.w3.org/2000/svg">
<path d="M19.3706 38.7412C30.0686 38.7412 38.7411 30.0687 38.7411 19.3706C38.7411 8.6725 30.0686 0 19.3706 0C8.67249 0 0 8.6725 0 19.3706C0 30.0687 8.67249 38.7412 19.3706 38.7412Z" fill="#FC4E04"/>
<path d="M77.4815 36.3206C86.8423 36.3206 94.4307 28.7322 94.4307 19.3714C94.4307 10.0106 86.8423 2.42212 77.4815 2.42212C68.1207 2.42212 60.5322 10.0106 60.5322 19.3714C60.5322 28.7322 68.1207 36.3206 77.4815 36.3206Z" fill="#FC4E04"/>
<path d="M135.593 33.8994C143.617 33.8994 150.121 27.395 150.121 19.3714C150.121 11.3479 143.617 4.84351 135.593 4.84351C127.57 4.84351 121.065 11.3479 121.065 19.3714C121.065 27.395 127.57 33.8994 135.593 33.8994Z" fill="#FC4E04"/>
<path d="M19.3711 94.4317C28.7319 94.4317 36.3203 86.8433 36.3203 77.4825C36.3203 68.1216 28.7319 60.5332 19.3711 60.5332C10.0103 60.5332 2.42188 68.1216 2.42188 77.4825C2.42188 86.8433 10.0103 94.4317 19.3711 94.4317Z" fill="#FC4E04"/>
<path d="M77.4819 96.8549C88.1799 96.8549 96.8524 88.1824 96.8524 77.4843C96.8524 66.7863 88.1799 58.1138 77.4819 58.1138C66.7838 58.1138 58.1113 66.7863 58.1113 77.4843C58.1113 88.1824 66.7838 96.8549 77.4819 96.8549Z" fill="#FC4E04"/>
<path d="M135.592 94.4317C144.953 94.4317 152.542 86.8433 152.542 77.4825C152.542 68.1216 144.953 60.5332 135.592 60.5332C126.231 60.5332 118.643 68.1216 118.643 77.4825C118.643 86.8433 126.231 94.4317 135.592 94.4317Z" fill="#FC4E04"/>
<path d="M19.3717 150.121C27.3952 150.121 33.8996 143.617 33.8996 135.593C33.8996 127.57 27.3952 121.065 19.3717 121.065C11.3481 121.065 4.84375 127.57 4.84375 135.593C4.84375 143.617 11.3481 150.121 19.3717 150.121Z" fill="#FC4E04"/>
<path d="M77.4815 152.542C86.8423 152.542 94.4307 144.953 94.4307 135.592C94.4307 126.232 86.8423 118.643 77.4815 118.643C68.1207 118.643 60.5322 126.232 60.5322 135.592C60.5322 144.953 68.1207 152.542 77.4815 152.542Z" fill="#FC4E04"/>
<path d="M135.597 154.963C146.295 154.963 154.967 146.29 154.967 135.592C154.967 124.894 146.295 116.222 135.597 116.222C124.899 116.222 116.226 124.894 116.226 135.592C116.226 146.29 124.899 154.963 135.597 154.963Z" fill="#FC4E04"/>
<path d="M193.708 31.4763C200.394 31.4763 205.814 26.056 205.814 19.3697C205.814 12.6834 200.394 7.26306 193.708 7.26306C187.021 7.26306 181.601 12.6834 181.601 19.3697C181.601 26.056 187.021 31.4763 193.708 31.4763Z" fill="#FC4E04"/>
<path d="M193.703 92.01C201.726 92.01 208.231 85.5056 208.231 77.482C208.231 69.4585 201.726 62.9541 193.703 62.9541C185.679 62.9541 179.175 69.4585 179.175 77.482C179.175 85.5056 185.679 92.01 193.703 92.01Z" fill="#FC4E04"/>
<path d="M193.703 152.542C203.064 152.542 210.652 144.953 210.652 135.592C210.652 126.232 203.064 118.643 193.703 118.643C184.342 118.643 176.754 126.232 176.754 135.592C176.754 144.953 184.342 152.542 193.703 152.542Z" fill="#FC4E04"/>
<path d="M251.813 33.8994C259.837 33.8994 266.341 27.395 266.341 19.3714C266.341 11.3479 259.837 4.84351 251.813 4.84351C243.79 4.84351 237.285 11.3479 237.285 19.3714C237.285 27.395 243.79 33.8994 251.813 33.8994Z" fill="#FC4E04"/>
<path d="M251.819 89.5872C258.505 89.5872 263.925 84.1669 263.925 77.4806C263.925 70.7943 258.505 65.374 251.819 65.374C245.132 65.374 239.712 70.7943 239.712 77.4806C239.712 84.1669 245.132 89.5872 251.819 89.5872Z" fill="#FC4E04"/>
<path d="M251.813 150.121C259.837 150.121 266.341 143.617 266.341 135.593C266.341 127.57 259.837 121.065 251.813 121.065C243.79 121.065 237.285 127.57 237.285 135.593C237.285 143.617 243.79 150.121 251.813 150.121Z" fill="#FC4E04"/>
<path d="M19.3678 205.812C26.0541 205.812 31.4744 200.392 31.4744 193.706C31.4744 187.02 26.0541 181.599 19.3678 181.599C12.6815 181.599 7.26123 187.02 7.26123 193.706C7.26123 200.392 12.6815 205.812 19.3678 205.812Z" fill="#FC4E04"/>
<path d="M77.482 208.233C85.5056 208.233 92.0099 201.729 92.0099 193.705C92.0099 185.682 85.5056 179.177 77.482 179.177C69.4585 179.177 62.9541 185.682 62.9541 193.705C62.9541 201.729 69.4585 208.233 77.482 208.233Z" fill="#FC4E04"/>
<path d="M135.592 210.656C144.953 210.656 152.542 203.068 152.542 193.707C152.542 184.346 144.953 176.758 135.592 176.758C126.231 176.758 118.643 184.346 118.643 193.707C118.643 203.068 126.231 210.656 135.592 210.656Z" fill="#FC4E04"/>
<path d="M19.3717 266.347C27.3952 266.347 33.8996 259.843 33.8996 251.819C33.8996 243.795 27.3952 237.291 19.3717 237.291C11.3481 237.291 4.84375 243.795 4.84375 251.819C4.84375 259.843 11.3481 266.347 19.3717 266.347Z" fill="#FC4E04"/>
<path d="M77.4835 263.924C84.1698 263.924 89.5901 258.504 89.5901 251.818C89.5901 245.131 84.1698 239.711 77.4835 239.711C70.7973 239.711 65.377 245.131 65.377 251.818C65.377 258.504 70.7973 263.924 77.4835 263.924Z" fill="#FC4E04"/>
<path d="M135.593 266.347C143.617 266.347 150.121 259.842 150.121 251.819C150.121 243.795 143.617 237.291 135.593 237.291C127.57 237.291 121.065 243.795 121.065 251.819C121.065 259.842 127.57 266.347 135.593 266.347Z" fill="#FC4E04"/>
<path d="M193.706 213.077C204.404 213.077 213.077 204.404 213.077 193.706C213.077 183.008 204.404 174.335 193.706 174.335C183.008 174.335 174.335 183.008 174.335 193.706C174.335 204.404 183.008 213.077 193.706 213.077Z" fill="#FC4E04"/>
<path d="M193.702 268.767C203.063 268.767 210.651 261.179 210.651 251.818C210.651 242.457 203.063 234.869 193.702 234.869C184.341 234.869 176.753 242.457 176.753 251.818C176.753 261.179 184.341 268.767 193.702 268.767Z" fill="#FC4E04"/>
<path d="M251.818 210.656C261.179 210.656 268.767 203.068 268.767 193.707C268.767 184.346 261.179 176.758 251.818 176.758C242.457 176.758 234.869 184.346 234.869 193.707C234.869 203.068 242.457 210.656 251.818 210.656Z" fill="#FC4E04"/>
<path d="M251.817 271.188C262.515 271.188 271.187 262.515 271.187 251.817C271.187 241.119 262.515 232.447 251.817 232.447C241.119 232.447 232.446 241.119 232.446 251.817C232.446 262.515 241.119 271.188 251.817 271.188Z" fill="#FC4E04"/>
<path d="M368.647 236.538V34.5787H496.74V61.4013H401.83V121.987H480.018V148.53H401.83V236.518H368.647V236.538Z" fill="#141414"/>
<path d="M559.624 239.994C545.382 239.994 533.181 236.714 522.98 230.193C512.779 223.653 504.898 214.672 499.318 203.211C493.737 191.77 490.957 178.928 490.957 164.687C490.957 150.446 493.737 137.424 499.318 126.183C504.898 114.942 512.819 106.081 523.12 99.6408C533.401 93.2002 545.662 89.9799 559.904 89.9799C571.245 89.9799 581.486 92.9201 590.627 98.7807C599.768 104.641 606.449 112.782 610.669 123.163L606.909 128.924V93.4402H638.932V236.534H606.909V200.19L610.369 207.691C607.669 212.892 603.968 217.992 599.268 222.973C594.547 227.973 588.927 232.053 582.386 235.234C575.845 238.414 568.245 239.994 559.604 239.994H559.624ZM565.985 211.151C573.665 211.151 580.546 209.331 586.607 205.671C592.667 202.011 597.468 196.77 601.028 189.949C604.588 183.129 606.369 174.808 606.369 164.987C606.369 155.166 604.588 146.625 601.028 139.885C597.468 133.164 592.667 127.963 586.607 124.303C580.546 120.643 573.665 118.823 565.985 118.823C554.443 118.823 544.682 122.823 536.702 130.804C528.721 138.785 524.72 150.086 524.72 164.707C524.72 179.328 528.701 190.729 536.702 198.89C544.682 207.071 554.443 211.151 565.985 211.151Z" fill="#141414"/>
<path d="M743.108 239.992C732.147 239.992 722.486 237.832 714.105 233.492C705.744 229.171 699.064 223.151 694.063 215.47V236.532H660.88V28.812H694.063V114.78C698.684 108.24 704.984 102.479 712.965 97.4786C720.946 92.4781 731.087 89.9779 743.408 89.9779C757.069 89.9779 769.171 93.2582 779.752 99.7788C790.333 106.319 798.654 115.26 804.714 126.601C810.775 137.942 813.795 150.844 813.795 165.265C813.795 179.686 810.775 192.288 804.714 203.629C798.654 214.97 790.333 223.871 779.752 230.311C769.171 236.752 756.969 239.972 743.108 239.972V239.992ZM736.767 211.149C745.228 211.149 752.729 209.169 759.27 205.229C765.81 201.288 770.911 195.848 774.551 188.927C778.212 182.007 780.032 174.126 780.032 165.265C780.032 156.404 778.212 147.963 774.551 141.023C770.891 134.102 765.79 128.662 759.27 124.721C752.729 120.781 745.228 118.801 736.767 118.801C728.307 118.801 721.086 120.781 714.545 124.721C708.005 128.662 702.904 134.102 699.264 141.023C695.603 147.943 693.783 155.924 693.783 164.965C693.783 174.006 695.603 181.987 699.264 188.907C702.924 195.828 708.005 201.269 714.545 205.209C721.086 209.149 728.487 211.129 736.767 211.129V211.149Z" fill="#141414"/>
<path d="M829.073 236.538V93.4448H862.257V115.367C865.717 108.246 870.337 102.626 876.098 98.4853C881.858 94.3449 888.499 92.2847 896 92.2847H915.622V122.008H892.84C886.099 122.008 880.478 123.788 875.958 127.348C871.437 130.908 868.017 136.389 865.717 143.79C863.417 151.19 862.257 160.671 862.257 172.212V236.538H829.073Z" fill="#141414"/>
<path d="M932.946 68.3301V33.7068H967.269V68.3301H932.946ZM933.526 236.526V93.4325H966.709V236.526H933.526Z" fill="#141414"/>
<path d="M1101.7 300V215.172C1097.28 221.513 1091.08 227.253 1083.1 232.334C1075.12 237.434 1064.98 239.974 1052.66 239.974C1038.99 239.974 1026.83 236.694 1016.15 230.173C1005.47 223.633 997.111 214.652 991.05 203.191C984.99 191.75 981.969 178.909 981.969 164.667C981.969 150.426 984.99 137.405 991.05 126.164C997.111 114.922 1005.47 106.062 1016.15 99.621C1026.83 93.1804 1038.99 89.9601 1052.66 89.9601C1063.82 89.9601 1073.58 92.1203 1081.94 96.4607C1090.3 100.781 1096.9 106.802 1101.7 114.482V93.4204H1134.88V299.98H1101.7V300ZM1059.02 211.152C1067.48 211.152 1074.94 209.171 1081.38 205.231C1087.82 201.291 1092.86 195.85 1096.52 188.93C1100.18 182.009 1102 174.028 1102 164.987C1102 155.946 1100.16 147.966 1096.52 141.045C1092.86 134.124 1087.82 128.684 1081.38 124.743C1074.94 120.803 1067.48 118.823 1059.02 118.823C1050.56 118.823 1043.34 120.803 1036.79 124.743C1030.25 128.684 1025.11 134.084 1021.35 140.905C1017.59 147.726 1015.73 155.666 1015.73 164.707C1015.73 173.748 1017.61 182.009 1021.35 188.95C1025.09 195.89 1030.25 201.311 1036.79 205.251C1043.34 209.191 1050.74 211.172 1059.02 211.172V211.152Z" fill="#141414"/>
</svg>
