<svg width="500" height="500" viewBox="0 0 500 500" fill="none" xmlns="http://www.w3.org/2000/svg">
<rect width="500" height="500" fill="white"/>
<path d="M158.163 173.47C166.617 173.47 173.469 166.617 173.469 158.163C173.469 149.71 166.617 142.857 158.163 142.857C149.71 142.857 142.857 149.71 142.857 158.163C142.857 166.617 149.71 173.47 158.163 173.47Z" fill="#FC4E04"/>
<path d="M204.082 171.558C211.478 171.558 217.474 165.562 217.474 158.165C217.474 150.768 211.478 144.772 204.082 144.772C196.685 144.772 190.689 150.768 190.689 158.165C190.689 165.562 196.685 171.558 204.082 171.558Z" fill="#FC4E04"/>
<path d="M250 169.643C256.34 169.643 261.479 164.503 261.479 158.163C261.479 151.823 256.34 146.684 250 146.684C243.66 146.684 238.52 151.823 238.52 158.163C238.52 164.503 243.66 169.643 250 169.643Z" fill="#FC4E04"/>
<path d="M158.163 217.474C165.559 217.474 171.556 211.478 171.556 204.081C171.556 196.685 165.559 190.688 158.163 190.688C150.766 190.688 144.77 196.685 144.77 204.081C144.77 211.478 150.766 217.474 158.163 217.474Z" fill="#FC4E04"/>
<path d="M204.082 219.39C212.536 219.39 219.388 212.537 219.388 204.084C219.388 195.631 212.536 188.778 204.082 188.778C195.629 188.778 188.776 195.631 188.776 204.084C188.776 212.537 195.629 219.39 204.082 219.39Z" fill="#FC4E04"/>
<path d="M250 217.474C257.397 217.474 263.393 211.478 263.393 204.081C263.393 196.685 257.397 190.688 250 190.688C242.604 190.688 236.608 196.685 236.608 204.081C236.608 211.478 242.604 217.474 250 217.474Z" fill="#FC4E04"/>
<path d="M158.166 261.479C164.506 261.479 169.646 256.339 169.646 249.999C169.646 243.659 164.506 238.52 158.166 238.52C151.826 238.52 146.687 243.659 146.687 249.999C146.687 256.339 151.826 261.479 158.166 261.479Z" fill="#FC4E04"/>
<path d="M204.082 263.393C211.478 263.393 217.474 257.397 217.474 250C217.474 242.603 211.478 236.607 204.082 236.607C196.685 236.607 190.689 242.603 190.689 250C190.689 257.397 196.685 263.393 204.082 263.393Z" fill="#FC4E04"/>
<path d="M250.003 265.305C258.457 265.305 265.309 258.452 265.309 249.998C265.309 241.545 258.457 234.692 250.003 234.692C241.55 234.692 234.697 241.545 234.697 249.998C234.697 258.452 241.55 265.305 250.003 265.305Z" fill="#FC4E04"/>
<path d="M295.92 167.729C301.204 167.729 305.487 163.446 305.487 158.163C305.487 152.879 301.204 148.596 295.92 148.596C290.637 148.596 286.354 152.879 286.354 158.163C286.354 163.446 290.637 167.729 295.92 167.729Z" fill="#FC4E04"/>
<path d="M295.917 215.563C302.257 215.563 307.396 210.423 307.396 204.083C307.396 197.743 302.257 192.603 295.917 192.603C289.577 192.603 284.437 197.743 284.437 204.083C284.437 210.423 289.577 215.563 295.917 215.563Z" fill="#FC4E04"/>
<path d="M295.919 263.393C303.316 263.393 309.312 257.397 309.312 250C309.312 242.603 303.316 236.607 295.919 236.607C288.523 236.607 282.526 242.603 282.526 250C282.526 257.397 288.523 263.393 295.919 263.393Z" fill="#FC4E04"/>
<path d="M341.836 169.643C348.176 169.643 353.315 164.503 353.315 158.163C353.315 151.823 348.176 146.684 341.836 146.684C335.496 146.684 330.356 151.823 330.356 158.163C330.356 164.503 335.496 169.643 341.836 169.643Z" fill="#FC4E04"/>
<path d="M341.839 213.646C347.123 213.646 351.406 209.363 351.406 204.08C351.406 198.797 347.123 194.514 341.839 194.514C336.556 194.514 332.273 198.797 332.273 204.08C332.273 209.363 336.556 213.646 341.839 213.646Z" fill="#FC4E04"/>
<path d="M341.836 261.479C348.176 261.479 353.315 256.339 353.315 249.999C353.315 243.659 348.176 238.52 341.836 238.52C335.496 238.52 330.356 243.659 330.356 249.999C330.356 256.339 335.496 261.479 341.836 261.479Z" fill="#FC4E04"/>
<path d="M158.162 305.486C163.445 305.486 167.728 301.203 167.728 295.919C167.728 290.636 163.445 286.353 158.162 286.353C152.878 286.353 148.595 290.636 148.595 295.919C148.595 301.203 152.878 305.486 158.162 305.486Z" fill="#FC4E04"/>
<path d="M204.081 307.398C210.421 307.398 215.561 302.258 215.561 295.918C215.561 289.578 210.421 284.438 204.081 284.438C197.741 284.438 192.601 289.578 192.601 295.918C192.601 302.258 197.741 307.398 204.081 307.398Z" fill="#FC4E04"/>
<path d="M250 309.311C257.397 309.311 263.393 303.315 263.393 295.919C263.393 288.522 257.397 282.526 250 282.526C242.604 282.526 236.608 288.522 236.608 295.919C236.608 303.315 242.604 309.311 250 309.311Z" fill="#FC4E04"/>
<path d="M158.166 353.318C164.506 353.318 169.646 348.179 169.646 341.839C169.646 335.499 164.506 330.359 158.166 330.359C151.826 330.359 146.687 335.499 146.687 341.839C146.687 348.179 151.826 353.318 158.166 353.318Z" fill="#FC4E04"/>
<path d="M204.083 351.404C209.366 351.404 213.649 347.121 213.649 341.838C213.649 336.554 209.366 332.271 204.083 332.271C198.799 332.271 194.516 336.554 194.516 341.838C194.516 347.121 198.799 351.404 204.083 351.404Z" fill="#FC4E04"/>
<path d="M250 353.318C256.34 353.318 261.479 348.179 261.479 341.839C261.479 335.499 256.34 330.359 250 330.359C243.66 330.359 238.52 335.499 238.52 341.839C238.52 348.179 243.66 353.318 250 353.318Z" fill="#FC4E04"/>
<path d="M295.92 311.225C304.373 311.225 311.226 304.372 311.226 295.919C311.226 287.466 304.373 280.613 295.92 280.613C287.467 280.613 280.614 287.466 280.614 295.919C280.614 304.372 287.467 311.225 295.92 311.225Z" fill="#FC4E04"/>
<path d="M295.919 355.23C303.316 355.23 309.312 349.234 309.312 341.837C309.312 334.44 303.316 328.444 295.919 328.444C288.523 328.444 282.526 334.44 282.526 341.837C282.526 349.234 288.523 355.23 295.919 355.23Z" fill="#FC4E04"/>
<path d="M341.836 309.311C349.233 309.311 355.229 303.315 355.229 295.919C355.229 288.522 349.233 282.526 341.836 282.526C334.439 282.526 328.443 288.522 328.443 295.919C328.443 303.315 334.439 309.311 341.836 309.311Z" fill="#FC4E04"/>
<path d="M341.837 357.143C350.29 357.143 357.143 350.29 357.143 341.837C357.143 333.383 350.29 326.531 341.837 326.531C333.383 326.531 326.531 333.383 326.531 341.837C326.531 350.29 333.383 357.143 341.837 357.143Z" fill="#FC4E04"/>
</svg>
