<svg width="300" height="300" viewBox="0 0 300 300" fill="none" xmlns="http://www.w3.org/2000/svg">
<path d="M21.4286 42.8574C33.2633 42.8574 42.8573 33.2634 42.8573 21.4287C42.8573 9.59395 33.2633 0 21.4286 0C9.59392 0 0 9.59395 0 21.4287C0 33.2634 9.59392 42.8574 21.4286 42.8574Z" fill="#141414"/>
<path d="M85.7144 40.1811C96.0698 40.1811 104.464 31.7864 104.464 21.431C104.464 11.0756 96.0698 2.68091 85.7144 2.68091C75.359 2.68091 66.9644 11.0756 66.9644 21.431C66.9644 31.7864 75.359 40.1811 85.7144 40.1811Z" fill="#141414"/>
<path d="M150 37.5002C158.876 37.5002 166.071 30.3047 166.071 21.4287C166.071 12.5526 158.876 5.35718 150 5.35718C141.124 5.35718 133.928 12.5526 133.928 21.4287C133.928 30.3047 141.124 37.5002 150 37.5002Z" fill="#141414"/>
<path d="M21.4278 104.464C31.7831 104.464 40.1778 96.0694 40.1778 85.714C40.1778 75.3586 31.7831 66.9639 21.4278 66.9639C11.0724 66.9639 2.67773 75.3586 2.67773 85.714C2.67773 96.0694 11.0724 104.464 21.4278 104.464Z" fill="#141414"/>
<path d="M85.7152 107.146C97.5499 107.146 107.144 97.5525 107.144 85.7177C107.144 73.883 97.5499 64.2891 85.7152 64.2891C73.8805 64.2891 64.2866 73.883 64.2866 85.7177C64.2866 97.5525 73.8805 107.146 85.7152 107.146Z" fill="#141414"/>
<path d="M150.001 104.464C160.356 104.464 168.751 96.0694 168.751 85.714C168.751 75.3586 160.356 66.9639 150.001 66.9639C139.646 66.9639 131.251 75.3586 131.251 85.714C131.251 96.0694 139.646 104.464 150.001 104.464Z" fill="#141414"/>
<path d="M21.433 166.07C30.3091 166.07 37.5045 158.875 37.5045 149.999C37.5045 141.123 30.3091 133.927 21.433 133.927C12.557 133.927 5.36157 141.123 5.36157 149.999C5.36157 158.875 12.557 166.07 21.433 166.07Z" fill="#141414"/>
<path d="M85.7144 168.75C96.0698 168.75 104.464 160.355 104.464 150C104.464 139.644 96.0698 131.25 85.7144 131.25C75.359 131.25 66.9644 139.644 66.9644 150C66.9644 160.355 75.359 168.75 85.7144 168.75Z" fill="#141414"/>
<path d="M150.005 171.427C161.839 171.427 171.433 161.833 171.433 149.998C171.433 138.163 161.839 128.569 150.005 128.569C138.17 128.569 128.576 138.163 128.576 149.998C128.576 161.833 138.17 171.427 150.005 171.427Z" fill="#141414"/>
<path d="M214.289 34.8208C221.685 34.8208 227.681 28.8245 227.681 21.4278C227.681 14.0311 221.685 8.03491 214.289 8.03491C206.892 8.03491 200.896 14.0311 200.896 21.4278C200.896 28.8245 206.892 34.8208 214.289 34.8208Z" fill="#141414"/>
<path d="M214.283 101.787C223.159 101.787 230.354 94.5919 230.354 85.7158C230.354 76.8397 223.159 69.6443 214.283 69.6443C205.407 69.6443 198.212 76.8397 198.212 85.7158C198.212 94.5919 205.407 101.787 214.283 101.787Z" fill="#141414"/>
<path d="M214.287 168.75C224.642 168.75 233.037 160.355 233.037 150C233.037 139.644 224.642 131.25 214.287 131.25C203.931 131.25 195.537 139.644 195.537 150C195.537 160.355 203.931 168.75 214.287 168.75Z" fill="#141414"/>
<path d="M278.57 37.5002C287.446 37.5002 294.641 30.3047 294.641 21.4287C294.641 12.5526 287.446 5.35718 278.57 5.35718C269.694 5.35718 262.498 12.5526 262.498 21.4287C262.498 30.3047 269.694 37.5002 278.57 37.5002Z" fill="#141414"/>
<path d="M278.575 99.1049C285.971 99.1049 291.968 93.1087 291.968 85.712C291.968 78.3153 285.971 72.3191 278.575 72.3191C271.178 72.3191 265.182 78.3153 265.182 85.712C265.182 93.1087 271.178 99.1049 278.575 99.1049Z" fill="#141414"/>
<path d="M278.57 166.07C287.446 166.07 294.641 158.875 294.641 149.999C294.641 141.123 287.446 133.927 278.57 133.927C269.694 133.927 262.498 141.123 262.498 149.999C262.498 158.875 269.694 166.07 278.57 166.07Z" fill="#141414"/>
<path d="M21.426 227.68C28.8227 227.68 34.8189 221.684 34.8189 214.287C34.8189 206.891 28.8227 200.894 21.426 200.894C14.0293 200.894 8.03308 206.891 8.03308 214.287C8.03308 221.684 14.0293 227.68 21.426 227.68Z" fill="#141414"/>
<path d="M85.7134 230.356C94.5895 230.356 101.785 223.161 101.785 214.285C101.785 205.409 94.5895 198.213 85.7134 198.213C76.8374 198.213 69.642 205.409 69.642 214.285C69.642 223.161 76.8374 230.356 85.7134 230.356Z" fill="#141414"/>
<path d="M150.001 233.036C160.356 233.036 168.751 224.641 168.751 214.286C168.751 203.93 160.356 195.536 150.001 195.536C139.646 195.536 131.251 203.93 131.251 214.286C131.251 224.641 139.646 233.036 150.001 233.036Z" fill="#141414"/>
<path d="M21.4329 294.646C30.3089 294.646 37.5044 287.45 37.5044 278.574C37.5044 269.698 30.3089 262.503 21.4329 262.503C12.5569 262.503 5.36145 269.698 5.36145 278.574C5.36145 287.45 12.5569 294.646 21.4329 294.646Z" fill="#141414"/>
<path d="M85.7152 291.966C93.1118 291.966 99.108 285.97 99.108 278.573C99.108 271.176 93.1118 265.18 85.7152 265.18C78.3185 265.18 72.3223 271.176 72.3223 278.573C72.3223 285.97 78.3185 291.966 85.7152 291.966Z" fill="#141414"/>
<path d="M150 294.646C158.876 294.646 166.071 287.45 166.071 278.574C166.071 269.698 158.876 262.503 150 262.503C141.124 262.503 133.928 269.698 133.928 278.574C133.928 287.45 141.124 294.646 150 294.646Z" fill="#141414"/>
<path d="M214.288 235.715C226.122 235.715 235.716 226.121 235.716 214.287C235.716 202.452 226.122 192.858 214.288 192.858C202.453 192.858 192.859 202.452 192.859 214.287C192.859 226.121 202.453 235.715 214.288 235.715Z" fill="#141414"/>
<path d="M214.287 297.322C224.642 297.322 233.037 288.928 233.037 278.572C233.037 268.217 224.642 259.822 214.287 259.822C203.931 259.822 195.537 268.217 195.537 278.572C195.537 288.928 203.931 297.322 214.287 297.322Z" fill="#141414"/>
<path d="M278.571 233.036C288.926 233.036 297.321 224.641 297.321 214.286C297.321 203.93 288.926 195.536 278.571 195.536C268.215 195.536 259.821 203.93 259.821 214.286C259.821 224.641 268.215 233.036 278.571 233.036Z" fill="#141414"/>
<path d="M278.571 300C290.406 300 300 290.406 300 278.571C300 266.736 290.406 257.142 278.571 257.142C266.737 257.142 257.143 266.736 257.143 278.571C257.143 290.406 266.737 300 278.571 300Z" fill="#141414"/>
</svg>
